<?xml version="1.0" standalone="no"?><!DOCTYPE svg PUBLIC "-//W3C//DTD SVG 1.1//EN" "http://www.w3.org/Graphics/SVG/1.1/DTD/svg11.dtd"><svg class="icon" width="200px" height="200.00px" viewBox="0 0 1024 1024" version="1.1" xmlns="http://www.w3.org/2000/svg"><path d="M702.8 855.3C531 916.4 342.3 826.6 281.2 654.8c-18.9-53.1-23.3-107.8-15.4-159.9v-0.3c0.1-0.5 0.1-1.1 0.2-1.6h-0.1c1.7-12.7 0.6-26-4-38.9-15.4-43.3-62.9-65.9-106.2-50.5-32 11.4-52.7 40.5-55 72.4-33.3 219.9 113.8 428 334 468.6C659.4 986 875.1 837.4 916.5 612.7l-1.2-0.2c-23 108.6-100.2 202.9-212.5 242.8z" fill="#67C23A" /><path d="M518.6 747c0-0.3-0.3-0.6-0.6-0.6s-0.6 0.3-0.6 0.6 0.3 0.6 0.6 0.6 0.6-0.3 0.6-0.6zM591.9 79.9C367.5 37.1 150.9 184.2 108 408.6l1.2 0.2C133 300.4 210.8 206.5 323.3 167.4c172.2-59.9 360.4 31.1 420.3 203.3 18.5 53.2 22.6 108 14.3 160 0 0.1 0 0.2-0.1 0.3-0.1 0.5-0.2 1.1-0.2 1.6h0.1c-1.8 12.7-0.7 26 3.8 38.9 15.1 43.4 62.5 66.3 105.9 51.2 32.2-11.2 53.1-40.2 55.6-72.1C957.6 331 811.9 121.9 591.9 79.9z" fill="#67C23A" /></svg>