<?xml version="1.0" encoding="UTF-8"?>
<!-- Generated by Pixelmator Pro 3.6.4 -->
<svg width="600" height="600" viewBox="0 0 600 600" xmlns="http://www.w3.org/2000/svg">
    <path id="path1" fill="#ffffff" stroke="none" d="M 411.796875 501.152344 C 311.132813 536.953125 200.566406 484.335938 164.76564 383.671875 C 153.691391 352.558594 151.113281 320.507813 155.742172 289.980469 L 155.742172 289.804688 C 155.800781 289.511719 155.800781 289.160156 155.859375 288.867188 L 155.800781 288.867188 C 156.796875 281.425781 156.152344 273.632813 153.457031 266.074219 C 144.433594 240.703125 116.601563 227.460938 91.230469 236.484375 C 72.480469 243.164063 60.351563 260.214844 59.003906 278.90625 C 39.492188 407.753906 125.683594 529.6875 254.707031 553.476563 C 386.367188 577.734375 512.753906 490.664063 537.011719 359.003906 L 536.308594 358.886719 C 522.832031 422.519531 477.597656 477.773438 411.796875 501.152344 Z"/>
    <path id="path2" fill="#ffffff" stroke="none" d="M 303.867157 437.695313 C 303.867157 437.519531 303.691406 437.34375 303.515625 437.34375 C 303.339844 437.34375 303.164093 437.519531 303.164093 437.695313 C 303.164093 437.871094 303.339844 438.046875 303.515625 438.046875 C 303.691406 438.046875 303.867157 437.871094 303.867157 437.695313 Z M 346.816437 46.816406 C 215.332031 21.738281 88.417961 107.929688 63.28125 239.414063 L 63.984375 239.53125 C 77.929688 176.015625 123.515625 120.996094 189.433578 98.085938 C 290.332031 62.988281 400.605469 116.308594 435.703125 217.207031 C 446.542969 248.378906 448.945313 280.488281 444.082031 310.957031 C 444.082031 311.015625 444.082031 311.074249 444.023438 311.132813 C 443.964844 311.425781 443.90625 311.777313 443.90625 312.070282 L 443.964844 312.070282 C 442.910156 319.511719 443.554688 327.304657 446.191406 334.863281 C 455.039063 360.292999 482.8125 373.710938 508.242188 364.863281 C 527.109375 358.300781 539.355469 341.308594 540.820313 322.617157 C 561.09375 193.945313 475.722656 71.425781 346.816437 46.816406 Z"/>
</svg>
